.
 
http://www.scenetime.com    -   SceneTime [ We been having it ] !!!


How come you press harder on a remote control when you know the battery is dead? so you better seed to get speed ;)

        Seed back for speed


...................................NFO:.................................................::::::::::::::Enjoy:Another:Release:From:TDP::::::::::::::

[IMG]http://pics.filmaffinity.com/5_Days_of_August-600179777-large.jpg[/IMG]

TiTLE.........: 5.Days.Of.August.2011.BRRip.XviD.AC3-TDP
RUNTiME.......: 1h 52mn
FORMAT........: XviD
RAR COUNT.....: 102x15MB
SOURCE .......: 5.Days.Of.August.2011.720p.BluRay.X264-7SinS
GENRE.........: Action | Drama | War 
AUDIO.........: English 
SUBTITLES.....: None
SAMPEL........: YES
RELEASE DATE..: 15-06-2011

IMDB : http://www.imdb.com/title/tt1486193/

Plot :
A drama set centered around the war between Russia and 
Georgia, and focused on an American journalist, his 
cameraman, and a Georgian native who become caught in 
the crossfire.  


General

Complete name                    : 5.Days.Of.August.2011.BRRip.XviD.AC3-TDP
Format                           : AVI
Format/Info                      : Audio Video Interleave
Format profile                   : OpenDML
File size                        : 1.42 GiB
Duration                         : 1h 52mn
Overall bit rate                 : 1 797 Kbps
Writing application              : MEncoder version 4.0.0 building on 20100917


Video

Format                           : MPEG-4 Visual
Format profile                   : Simple@L1
Format settings, BVOP            : No
Format settings, QPel            : No
Format settings, GMC             : No warppoints
Format settings, Matrix          : Default (H.263)
Codec ID                         : DX50
Codec ID/Hint                    : DivX 5
Duration                         : 1h 52mn
Bit rate                         : 1 343 Kbps
Width                            : 720 pixels
Height                           : 404 pixels
Display aspect ratio             : 16:9
Frame rate                       : 23.976 fps
Color space                      : YUV
Chroma subsampling               : 4:2:0
Bit depth                        : 8 bits
Scan type                        : Progressive
Compression mode                 : Lossy
Bits/(Pixel*Frame)               : 0.193
Stream size                      : 1.06 GiB (75%)
Writing library                  : DigiArty AV Encoder Core

Audio

Format                           : AC-3
Format/Info                      : Audio Coding 3
Mode extension                   : CM (complete main)
Codec ID                         : 2000
Duration                         : 1h 52mn
Bit rate mode                    : Constant
Bit rate                         : 448 Kbps
Channel(s)                       : 6 channels
Channel positions                : Front: L C R, Side: L R, LFE
Sampling rate                    : 48.0 KHz
Bit depth                        : 16 bits
Compression mode                 : Lossy
Stream size                      : 362 MiB (25%)
Alignment                        : Split accross interleaves
Interleave, duration             : 500 ms (11.99 video frames)
Interleave, preload duration     : 500 ms


GREETS:

IMAGiNE,FLAWL3SS,ViSiON,FUSiON,Rx,CM8,SecretMyth,BirdFlu,ELEKTRI4KA,Serenity,INK,SUBLIME
And to all the other p2p grps past and present

Looking for : SYNCERS, CAMMERS, SEED/RiPBOXES for group use
CAPPERS, SiLVER SUPPLiERS, and R1-R2-R4 PRE-RETAiL SOURCE SUPPLIERS!
Always looking for CAM+LiNE+SCR+DVDSCR+BRSCR+RUS DVD+PRERETAIL BR & DVD
If you'd like to help, feel free to contact us at thedanishpirates@gmail.com